HIERARCHY
ROOT ground_pelvis
{
  OFFSET 0.0 0.0 0.0
  CHANNELS 6 XPOSITION YPOSITION ZPOSITION ZROTATION XROTATION YROTATION 
  JOINT hip_r
  {
    OFFSET -0.0707 -0.0661 0.0835
    CHANNELS 3 ZROTATION XROTATION YROTATION 
    JOINT knee_r
    {
      OFFSET 0.0 -0.396 0.0
      CHANNELS 3 ZROTATION XROTATION YROTATION 
      JOINT ankle_r
      {
        OFFSET 0.0 -0.43 0.0
        CHANNELS 3 ZROTATION XROTATION YROTATION 
        JOINT mtp_r
        {
          OFFSET 0.13003 -0.04395 0.009
          CHANNELS 3 ZROTATION XROTATION YROTATION 
          End Site
          {
            OFFSET 0.0692 0.012 -0.035
          }
        }
      }
    }
  }
  JOINT hip_l
  {
    OFFSET -0.0707 -0.0661 -0.0835
    CHANNELS 3 ZROTATION XROTATION YROTATION 
    JOINT knee_l
    {
      OFFSET 0.0 -0.396 0.0
      CHANNELS 3 ZROTATION XROTATION YROTATION 
      JOINT ankle_l
      {
        OFFSET 0.0 -0.43 0.0
        CHANNELS 3 ZROTATION XROTATION YROTATION 
        JOINT mtp_l
        {
          OFFSET 0.13003 -0.04395 -0.009
          CHANNELS 3 ZROTATION XROTATION YROTATION 
          End Site
          {
            OFFSET 0.0692 0.012 0.035
          }
        }
      }
    }
  }
  JOINT back
  {
    OFFSET -0.1007 0.0815 0.0
    CHANNELS 3 ZROTATION XROTATION YROTATION 
    JOINT shoulder_r
    {
      OFFSET 0.0031 0.3715 0.17
      CHANNELS 3 ZROTATION XROTATION YROTATION 
      JOINT elbow_r
      {
        OFFSET 0.0061 -0.2904 -0.0123
        CHANNELS 3 ZROTATION XROTATION YROTATION 
        JOINT radioulnar_r
        {
          OFFSET 0.0004 -0.011503 0.019999
          CHANNELS 3 ZROTATION XROTATION YROTATION 
          JOINT radius_hand_r
          {
            OFFSET 0.018 -0.242 0.025
            CHANNELS 3 ZROTATION XROTATION YROTATION 
            End Site
            {
              OFFSET 0.0 -0.13619 0.0
            }
          }
        }
      }
    }
    JOINT shoulder_l
    {
      OFFSET 0.0031 0.3715 -0.17
      CHANNELS 3 ZROTATION XROTATION YROTATION 
      JOINT elbow_l
      {
        OFFSET 0.0061 -0.2904 0.0123
        CHANNELS 3 ZROTATION XROTATION YROTATION 
        JOINT radioulnar_l
        {
          OFFSET 0.0004 -0.011503 -0.019999
          CHANNELS 3 ZROTATION XROTATION YROTATION 
          JOINT radius_hand_l
          {
            OFFSET 0.018 -0.242 -0.025
            CHANNELS 3 ZROTATION XROTATION YROTATION 
            End Site
            {
              OFFSET 0.0 -0.13619 0.0
            }
          }
        }
      }
    }
  }
}
MOTION
Frames: 11
Frame Time: 0.033333
1.87525991067 0.916195108011 0.033357132454 -3.75094010914 -0.367966009488 177.12599801 1.65492644792 -2.06236814937 -26.0506078718 -23.5149752745 -8.34870158573 -1.87249209209 19.2839223856 1.89815289936 11.1385948051 -0 0.0 -0 1.8507340976 0.0504662900906 -30.1578772424 -18.9342610963 -15.1063259722 -2.61393345904 17.6076163784 9.22210178056 55.0167366323 -0 0.0 -0 -6.586851728 -1.26811800091 0.691714174702 2.75959065819 -10.5017010093 0.0970331157943 -0 0.0 -0 12.5127229981 13.8746721101 0.809874899878 -0 0.0 -0 -1.67399953773 14.5124683446 0.568317362474 -0 0.0 -0 15.656195474 -15.9925225265 -0.614371673861 -0 0.0 -0 
1.87515265297 0.916218859092 0.0334113455628 -3.76946998547 -0.369926994151 177.160394843 1.62037721666 -2.07281471026 -26.0770868077 -23.5091969345 -8.34679340163 -1.87165325948 19.2843117064 1.89233507229 11.1044336139 -0 0.0 -0 1.82530295545 0.0635469261094 -30.089261162 -18.9332570585 -15.1055917269 -2.61367199087 17.6119876994 9.20427925569 54.9137578702 -0 0.0 -0 -6.49315476608 -1.30813960107 0.726736876805 2.63889523914 -10.4890643056 0.082878642637 -0 0.0 -0 12.4841087744 13.8811531059 0.810198053203 -0 0.0 -0 -1.679156544 14.5569772724 0.570730073438 -0 0.0 -0 15.6083704894 -16.0035942631 -0.615505805429 -0 0.0 -0 
1.87494122649 0.916256154511 0.0335329400372 -3.79885943569 -0.37942800073 177.214298696 1.56076108443 -2.10125561796 -26.1773061734 -23.5026894718 -8.34464445336 -1.87070877239 19.29310899 1.89865406449 11.1361444747 -0 0.0 -0 1.77391186508 0.0620102269276 -30.0715163305 -18.9223270483 -15.0975713773 -2.61082422887 17.6314110499 9.20366709999 54.8581430549 -0 0.0 -0 -6.2698340472 -1.34344612955 0.782343154386 2.37406425903 -10.4820556777 0.0518974048198 -0 0.0 -0 12.4478831586 13.8889634272 0.810625633717 -0 0.0 -0 -1.77134264673 14.5810775949 0.585726820978 -0 0.0 -0 15.5755360625 -15.9878984884 -0.617765050579 -0 0.0 -0 
1.87479244071 0.916278658692 0.0336817382824 -3.81657011621 -0.391833038325 177.279199153 1.5141699095 -2.12946280513 -26.2805444827 -23.4858376875 -8.33907955673 -1.86826377811 19.297963547 1.90679074078 11.180726827 -0 0.0 -0 1.74804017572 0.0397028791241 -30.1517676382 -18.9180257367 -15.0944175374 -2.60970407784 17.6435209753 9.21613048768 54.8891452836 -0 0.0 -0 -6.12444834808 -1.33895912215 0.814113939393 2.20050595057 -10.4910817727 0.0315793095914 -0 0.0 -0 12.4300871007 13.8854860071 0.81108939289 -0 0.0 -0 -1.8450404946 14.543965762 0.595602153939 -0 0.0 -0 15.6468022563 -15.9603762411 -0.616789027219 -0 0.0 -0 
1.87476473434 0.916289913799 0.0338152167423 -3.82489995879 -0.399972009134 177.372499537 1.47492940551 -2.14304250186 -26.3868119809 -23.4570450251 -8.32957022586 -1.86409053252 19.2997752547 1.90944128107 11.1951077902 -0 0.0 -0 1.75337071148 0.0231940234181 -30.2643940425 -18.9289437941 -15.1024276418 -2.61254799786 17.6332108047 9.21143473262 54.8929906801 -0 0.0 -0 -6.19666692638 -1.31460843054 0.79786262484 2.26294860717 -10.5172883548 0.0388395372099 -0 0.0 -0 12.4242216757 13.8749495866 0.811564944811 -0 0.0 -0 -1.79308239181 14.4890151826 0.585599768787 -0 0.0 -0 15.8085035698 -15.960625543 -0.610603703956 -0 0.0 -0 
1.87468169616 0.916321727017 0.0339611526459 -3.84932983791 -0.410096030351 177.485894338 1.41590227037 -2.15926804312 -26.5061268479 -23.4371982029 -8.32301409803 -1.86121651699 19.3059958495 1.910143083 11.1955432148 -0 0.0 -0 1.73369741879 0.012889362374 -30.345721105 -18.9308596621 -15.1038312456 -2.61304702856 17.6198765679 9.1918645331 54.8289200905 -0 0.0 -0 -6.35218435736 -1.30712510453 0.76269563499 2.39463700225 -10.5571203104 0.054254797254 -0 0.0 -0 12.4362547615 13.8651277745 0.811672627012 -0 0.0 -0 -1.70893702256 14.4666582659 0.571960361262 -0 0.0 -0 15.9413592869 -15.9836501107 -0.603999497998 -0 0.0 -0 
1.87450162546 0.916388157767 0.0341847794982 -3.90138953976 -0.427262990458 177.5943031 1.32927999705 -2.19735061661 -26.6494993488 -23.4325519667 -8.32147815924 -1.8605439568 19.3240429168 1.91754935594 11.2280540615 -0 0.0 -0 1.66571804009 -0.0195604028003 -30.4555027355 -18.9117709909 -15.0898293578 -2.6080759315 17.6251306909 9.19478102388 54.8296543359 -0 0.0 -0 -6.40305603319 -1.31475357206 0.74708886618 2.37714019203 -10.5991737852 0.0521635620839 -0 0.0 -0 12.4877253595 13.8491639149 0.811246647323 -0 0.0 -0 -1.7273386194 14.4717518795 0.574947768611 -0 0.0 -0 15.9391138622 -16.0071852351 -0.602517400309 -0 0.0 -0 
1.87442132112 0.916457481328 0.0344847860542 -3.95533992335 -0.436156990655 177.704091561 1.24148474545 -2.23607245312 -26.8232559462 -23.4189086638 -8.31697023439 -1.85857003213 19.345228456 1.92962278252 11.2857768439 -0 0.0 -0 1.6135151177 -0.0635142892777 -30.6488653909 -18.9058816603 -15.0855092632 -2.60654276748 17.6376487201 9.22444197412 54.9474511934 -0 0.0 -0 -6.37549750055 -1.29631344869 0.730970153348 2.27968790673 -10.6355658868 0.0406069120237 -0 0.0 -0 12.5377564952 13.8184972193 0.811382984302 -0 0.0 -0 -1.82538235639 14.4681318792 0.589729898801 -0 0.0 -0 15.8416248647 -16.0389831807 -0.604188235335 -0 0.0 -0 
1.87456021126 0.916482919417 0.0347634592623 -3.97373020769 -0.425242028196 177.832102966 1.19442324797 -2.24457283699 -26.9981361097 -23.388242822 -8.30683508743 -1.85413681247 19.3438146069 1.93583590678 11.3227247522 -0 0.0 -0 1.64135326121 -0.0719481454999 -30.8298551586 -18.941470361 -15.1116125386 -2.61581304173 17.628615795 9.23413230501 55.0213538402 -0 0.0 -0 -6.39438724247 -1.24780459143 0.674505566449 2.3190359862 -10.6624520727 0.0452262009759 -0 0.0 -0 12.4927207891 13.8021816049 0.81279613977 -0 0.0 -0 -1.91186407723 14.4549888877 0.602380583082 -0 0.0 -0 15.78729754 -16.0879590522 -0.603103249113 -0 0.0 -0 
1.87479118783 0.916454452383 0.0349459575006 -3.94976008569 -0.416401015326 177.955196636 1.21080161471 -2.2387165901 -27.1229509866 -23.3720347831 -8.30147680403 -1.85179576513 19.3138454444 1.93422590313 11.3311429604 -0 0.0 -0 1.72713595488 -0.0481401504409 -30.8902920875 -18.9914280721 -15.1482394281 -2.62885229974 17.6035199724 9.20648369925 54.9479532123 -0 0.0 -0 -6.47269493442 -1.23084800648 0.606261251109 2.52126486748 -10.672031413 0.0691997747614 -0 0.0 -0 12.3421731746 13.8320739278 0.814583514898 -0 0.0 -0 -1.95856357469 14.4680294264 0.609989040292 -0 0.0 -0 15.8152654571 -16.1242683378 -0.599624121504 -0 0.0 -0 
1.87501735962 0.916408922076 0.035061830063 -3.91358014677 -0.433936005236 178.040000264 1.26676167475 -2.25598715031 -27.202218747 -23.3902150391 -8.3074873705 -1.85442175942 19.293037273 1.9339838583 11.3421045602 -0 0.0 -0 1.80885095073 -0.0470927569399 -30.8846127852 -19.0195804043 -15.1688683069 -2.63621353612 17.58601249 9.1785559095 54.8523032432 -0 0.0 -0 -6.55801082734 -1.27280639216 0.59129209113 2.73511937105 -10.6655828607 0.0945497483915 -0 0.0 -0 12.1998747209 13.8879440215 0.815453083357 -0 0.0 -0 -1.96555704807 14.513349439 0.612823248632 -0 0.0 -0 15.8112066172 -16.1159081863 -0.600332806992 -0 0.0 -0 
